Coordinates
version=1
nRows=23
nColumns=38
inDegrees=no

Units are S.I. units (second, meters, Newtons, ...)
If the header above contains a line with 'inDegrees', this indicates whether rotational values are in degrees (yes) or radians (no).

endheader
time	pelvis_tilt	pelvis_list	pelvis_rotation	pelvis_tx	pelvis_ty	pelvis_tz	hip_flexion_r	hip_adduction_r	hip_rotation_r	knee_angle_r	ankle_angle_r	subtalar_angle_r	mtp_angle_r	hip_flexion_l	hip_adduction_l	hip_rotation_l	knee_angle_l	ankle_angle_l	subtalar_angle_l	mtp_angle_l	lumbar_extension	lumbar_bending	lumbar_rotation	arm_flex_r	arm_add_r	arm_rot_r	elbow_flex_r	pro_sup_r	wrist_flex_r	wrist_dev_r	arm_flex_l	arm_add_l	arm_rot_l	elbow_flex_l	pro_sup_l	wrist_flex_l	wrist_dev_l
0	-0.928505	1.40123	-0.546987	0.917828	1.86431	0.933906	0.187564	0.0608005	-0.329304	0.501888	-0.29751	0	0	-0.121923	-0.30543	-0.268911	1.0056	-0.454658	0	0	-0.149521	0.191561	-0.14729	-0.358406	-0.28929	-0.206226	0.834621	0.28797	0	0	-0.0190781	-0.222252	0.212498	0.727652	1.47022	0	0
0.01	-0.926595	1.40405	-0.5493	0.916524	1.85523	0.934945	0.175708	0.0629994	-0.320634	0.496826	-0.289507	0	0	-0.083533	-0.303199	-0.247177	1.06411	-0.432703	0	0	-0.150538	0.187593	-0.145396	-0.356525	-0.284594	-0.212045	0.83306	0.290061	0	0	-0.0269102	-0.220063	0.201723	0.722724	1.47428	0	0
0.02	-0.905413	1.40552	-0.569507	0.91506	1.846	0.936255	0.159412	0.064213	-0.317126	0.491712	-0.281426	0	0	-0.0499225	-0.301152	-0.230643	1.11505	-0.399437	0	0	-0.154253	0.183603	-0.141898	-0.358651	-0.27888	-0.220331	0.834958	0.292955	0	0	-0.0314714	-0.219075	0.196722	0.714599	1.47511	0	0
0.03	-0.875119	1.40731	-0.59826	0.913859	1.83663	0.937651	0.141401	0.063229	-0.317511	0.486438	-0.274061	0	0	-0.0186082	-0.297224	-0.218425	1.15877	-0.36203	0	0	-0.157235	0.178619	-0.138225	-0.362354	-0.273297	-0.229131	0.836799	0.29705	0	0	-0.0346553	-0.218554	0.196079	0.704029	1.47205	0	0
0.04	-0.84293	1.40956	-0.628423	0.912792	1.82728	0.939009	0.123019	0.0615534	-0.31863	0.47978	-0.268001	0	0	0.0124126	-0.291929	-0.208384	1.19624	-0.329926	0	0	-0.158808	0.1731	-0.132176	-0.367986	-0.266903	-0.240349	0.837911	0.300589	0	0	-0.0343449	-0.218285	0.202267	0.689475	1.46724	0	0
0.05	-0.820674	1.41238	-0.649316	0.912027	1.81775	0.940179	0.106266	0.0597747	-0.321	0.472693	-0.262479	0	0	0.0440298	-0.28581	-0.200365	1.22697	-0.301277	0	0	-0.148807	0.159501	-0.10032	-0.381755	-0.252809	-0.263917	0.817625	0.300865	0	0	-0.0160206	-0.214938	0.233678	0.659475	1.46893	0	0
0.06	-0.873151	1.4251	-0.596774	0.910919	1.80798	0.940959	0.103727	0.0596757	-0.313034	0.457831	-0.26117	0	0	0.0922865	-0.275658	-0.188459	1.24919	-0.282537	0	0	-0.0864669	0.124278	-0.146537	-0.324573	-0.276661	-0.148018	0.718092	0.247424	0	0	-0.0627446	-0.211768	0.16467	0.646941	1.48797	0	0
0.07	-0.780795	1.42125	-0.688067	0.909762	1.79924	0.942205	0.0783988	0.0544254	-0.326158	0.461822	-0.252587	0	0	0.10912	-0.269837	-0.186172	1.26466	-0.267226	0	0	-0.152852	0.144505	-0.127384	-0.358016	-0.270756	-0.20296	0.801844	0.268498	0	0	-0.0593797	-0.213774	0.160566	0.67142	1.46793	0	0
0.08	-0.732405	1.42116	-0.736998	0.908839	1.78993	0.943214	0.0571735	0.0529392	-0.328422	0.454706	-0.24721	0	0	0.131519	-0.263517	-0.185693	1.27158	-0.254477	0	0	-0.174106	0.142269	-0.120997	-0.361591	-0.270061	-0.206694	0.813638	0.265913	0	0	-0.069609	-0.211214	0.132412	0.682093	1.47217	0	0
0.09	-0.700217	1.42359	-0.770189	0.907809	1.78065	0.944221	0.0379328	0.0528106	-0.324169	0.440882	-0.242559	0	0	0.156331	-0.256106	-0.184818	1.27117	-0.235111	0	0	-0.182393	0.137202	-0.128785	-0.353476	-0.269731	-0.20255	0.812257	0.269702	0	0	-0.0935634	-0.190272	0.0681727	0.694217	1.5708	0	0
0.1	-0.654687	1.42456	-0.816962	0.906736	1.77146	0.945175	0.0164114	0.0516263	-0.322065	0.427167	-0.238758	0	0	0.176774	-0.248616	-0.185635	1.26424	-0.221314	0	0	-0.189824	0.127508	-0.129679	-0.345402	-0.268082	-0.196417	0.802151	0.269425	0	0	-0.09715	-0.18355	0.0242142	0.673041	1.5708	0	0
0.11	-0.611576	1.42521	-0.862243	0.905692	1.76219	0.946319	-0.00818336	0.0526288	-0.312094	0.40352	-0.23041	0	0	0.194474	-0.24091	-0.188051	1.24943	-0.195273	0	0	-0.165949	0.157689	0.000924209	-0.476462	-0.194791	-0.410476	0.898902	0.33431	0	0	0.0113114	-0.113565	0.320531	0.537108	1.5708	0	0
0.12	-0.576472	1.42814	-0.898751	0.904921	1.75289	0.946879	-0.0233281	0.0491278	-0.32538	0.396164	-0.212421	0	0	0.214625	-0.231814	-0.189885	1.23068	-0.188561	0	0	-0.163859	0.154999	0.0224954	-0.492729	-0.191078	-0.417963	0.904477	0.322274	0	0	0.0223243	-0.0978547	0.349464	0.508327	1.5708	0	0
0.13	-0.533775	1.42903	-0.94238	0.904276	1.74377	0.947481	-0.0447187	0.0475745	-0.324648	0.380942	-0.209667	0	0	0.230945	-0.222411	-0.191804	1.20586	-0.178914	0	0	-0.171489	0.149667	0.0261996	-0.491506	-0.189088	-0.421053	0.904541	0.323742	0	0	0.018552	-0.0977532	0.339176	0.508656	1.5708	0	0
0.14	-0.488074	1.4282	-0.989993	0.903633	1.73464	0.948115	-0.0695169	0.0474034	-0.321109	0.359657	-0.208043	0	0	0.2431	-0.213293	-0.196398	1.17487	-0.168351	0	0	-0.181634	0.144647	0.0281884	-0.488198	-0.188045	-0.42303	0.905097	0.325451	0	0	0.0123301	-0.0976452	0.323286	0.512843	1.5708	0	0
0.15	-0.425464	1.42243	-1.0573	0.902659	1.72543	0.948976	-0.10261	0.0485097	-0.309305	0.330378	-0.209514	0	0	0.245299	-0.206306	-0.209485	1.13689	-0.156517	0	0	-0.210227	0.132631	-0.0168676	-0.444637	-0.203533	-0.38573	0.892058	0.346595	0	0	-0.048034	-0.111627	0.207336	0.591166	1.5708	0	0
0.16	-0.338761	1.4046	-1.14821	0.901777	1.71685	0.950014	-0.147694	0.0489368	-0.302872	0.304862	-0.212658	0	0	0.232662	-0.200968	-0.227569	1.09503	-0.150358	0	0	-0.261129	0.0842554	-0.119578	-0.316116	-0.268357	-0.167696	0.78744	0.256287	0	0	-0.153335	-0.174003	-0.0799408	0.688334	1.5708	0	0
0.17	-0.298617	1.39944	-1.19102	0.90117	1.70782	0.950326	-0.174689	0.0483182	-0.299288	0.28715	-0.211635	0	0	0.235197	-0.192035	-0.240808	1.04753	-0.148254	0	0	-0.272585	0.0773415	-0.116417	-0.311456	-0.267201	-0.166612	0.785514	0.257098	0	0	-0.160888	-0.179088	-0.076929	0.690704	1.5708	0	0
0.18	-0.263337	1.39398	-1.22797	0.900417	1.69907	0.950612	-0.200867	0.0488755	-0.291423	0.268911	-0.211605	0	0	0.23638	-0.181202	-0.249412	0.993154	-0.149866	0	0	-0.286277	0.0710497	-0.118075	-0.302955	-0.265512	-0.163906	0.783548	0.259739	0	0	-0.17981	-0.195348	-0.0511278	0.722583	1.5657	0	0
0.19	-0.227719	1.38916	-1.26483	0.900055	1.69005	0.950656	-0.224955	0.0472806	-0.287445	0.254847	-0.210227	0	0	0.234153	-0.167336	-0.257341	0.929887	-0.153721	0	0	-0.296619	0.0632074	-0.11635	-0.297244	-0.262969	-0.164453	0.779793	0.260527	0	0	-0.184893	-0.200515	-0.0618254	0.719245	1.53317	0	0
0.2	-0.194085	1.3865	-1.2989	0.899944	1.6809	0.950494	-0.245994	0.0446514	-0.284847	0.242409	-0.208614	0	0	0.230209	-0.15018	-0.26264	0.856039	-0.162009	0	0	-0.303946	0.0564415	-0.114842	-0.293795	-0.261235	-0.165848	0.77845	0.262758	0	0	-0.189599	-0.203443	-0.057781	0.717204	1.53566	0	0
0.21	-0.161789	1.38488	-1.33197	0.900175	1.67132	0.950176	-0.265903	0.0408553	-0.283961	0.230986	-0.206967	0	0	0.222114	-0.131794	-0.269081	0.771902	-0.172453	0	0	-0.308782	0.049737	-0.113252	-0.291022	-0.260149	-0.167558	0.776449	0.266139	0	0	-0.193723	-0.204614	-0.0550334	0.711793	1.53737	0	0
0.22	-0.132032	1.38277	-1.36127	0.899973	1.6624	0.949744	-0.284225	0.0386396	-0.280613	0.222636	-0.202133	0	0	0.212289	-0.113388	-0.269162	0.68177	-0.179577	0	0	-0.315495	0.0426996	-0.112464	-0.286514	-0.258242	-0.167196	0.77453	0.267103	0	0	-0.196691	-0.207526	-0.0554318	0.707883	1.53782	0	0
